SplineFontDB: 3.2
FontName: TimotejPetrinic
FullName: TimotejPetrinic
FamilyName: TimotejPetrinic
Weight: Regular
Copyright: Copyright (c) 2023, Korisnik
UComments: "2023-3-20: Created with FontForge (http://fontforge.org)"
Version: 001.000
ItalicAngle: 0
UnderlinePosition: -100
UnderlineWidth: 50
Ascent: 800
Descent: 200
InvalidEm: 0
LayerCount: 2
Layer: 0 0 "Stra+AX4A-nji" 1
Layer: 1 0 "Prednji" 0
XUID: [1021 71 -1229714884 27831]
StyleMap: 0x0000
FSType: 0
OS2Version: 0
OS2_WeightWidthSlopeOnly: 0
OS2_UseTypoMetrics: 1
CreationTime: 1679339076
ModificationTime: 1679345560
OS2TypoAscent: 0
OS2TypoAOffset: 1
OS2TypoDescent: 0
OS2TypoDOffset: 1
OS2TypoLinegap: 90
OS2WinAscent: 0
OS2WinAOffset: 1
OS2WinDescent: 0
OS2WinDOffset: 1
HheadAscent: 0
HheadAOffset: 1
HheadDescent: 0
HheadDOffset: 1
MarkAttachClasses: 1
DEI: 91125
Encoding: iso8859-2
UnicodeInterp: none
NameList: AGL For New Fonts
DisplaySize: -48
AntiAlias: 1
FitToEm: 0
WinInfo: 96 24 7
BeginPrivate: 0
EndPrivate
BeginChars: 256 20

StartChar: T
Encoding: 84 84 0
Width: 742
Flags: HW
LayerCount: 2
Fore
SplineSet
4 802 m 1
 4 765.079101562 0 664.158203125 0 674 c 1
 93.9997899971 725.690738358 200 611.586914062 294 612 c 1
 294 612 264.008160858 -0.180490529043 266 0 c 0
 297.54450339 2.85840557313 428.961669433 -1.31146521349 444 0 c 0
 476.621401062 2.84485252654 491.317382812 620.422851562 474 640 c 1
 476.573242188 614.176757812 820.755859375 658.337890625 820 686 c 0
 819.9453125 687.999023438 824.991110323 801.72650371 826 800 c 0
 851.108398438 757.032226563 7.6015625 795.548828125 4 802 c 1
EndSplineSet
Validated: 524325
EndChar

StartChar: t
Encoding: 116 116 1
Width: 418
Flags: HW
LayerCount: 2
Fore
SplineSet
0 538 m 0
 4 538 14 484 16 484 c 8
 18 484 46 472 46 472 c 1
 110 476 l 25
 126 456 l 25
 126 456 126 416 128 412 c 8
 130 408 126 336 126 320 c 8
 126 304 124 220 124 210 c 8
 124 200 132 62 132 62 c 25
 132 16 l 1
 196 0 l 25
 262 0 l 1
 330 22 l 1
 324 62 l 25
 296 74 l 1
 234 90 l 1
 218 194 l 1
 222 250 l 1
 218 328 l 1
 218 328 216 362 222 386 c 0
 228 410 220 474 220 474 c 25
 220 474 288 468 290 468 c 0
 292 468 328 472 328 472 c 25
 322 532 l 1
 320 552 l 25
 230 550 l 1
 218 576 l 25
 212 600 l 25
 214 620 l 25
 164 616 l 25
 126 626 l 25
 120 574 l 25
 120 542 l 25
 10 550 l 1049
EndSplineSet
Validated: 35
EndChar

StartChar: i
Encoding: 105 105 2
Width: 214
Flags: HW
LayerCount: 2
Fore
SplineSet
0 520 m 9
 90 524 l 25
 92 580 l 25
 40 580 l 25
 20 582 l 25
 0 520 l 9
0 418 m 9
 0 418 0 -10 0 0 c 8
 0 10 118 -2 118 0 c 0
 118 2 168 6 168 18 c 0
 168 30 106 64 106 64 c 1
 102 86 l 1
 118 86 l 1
 118 86 104 170 106 170 c 0
 108 170 102 212 102 212 c 1
 104 236 l 1
 82 320 l 25
 82 370 l 25
 80 422 l 25
 0 418 l 9
EndSplineSet
Validated: 37
EndChar

StartChar: m
Encoding: 109 109 3
Width: 574
Flags: HW
LayerCount: 2
Fore
SplineSet
34 366 m 1
 104 372 l 1
 124 266 l 25
 194 316 l 25
 242 330 l 25
 242 330 270 300 272 300 c 8
 274 300 306 258 306 258 c 25
 306 258 338 290 342 290 c 8
 346 290 370 320 370 320 c 25
 370 320 396 334 396 332 c 8
 396 330 434 324 436 324 c 8
 438 324 464 282 468 280 c 8
 472 278 500 214 502 216 c 8
 504 218 524 174 522 158 c 8
 520 142 522 52 528 52 c 8
 534 52 528 10 528 10 c 25
 528 10 476 -2 476 0 c 8
 476 2 464 44 464 44 c 25
 456 112 l 25
 428 166 l 25
 366 192 l 25
 328 194 l 25
 328 194 330 130 332 130 c 8
 334 130 340 50 340 50 c 25
 328 14 l 25
 328 14 284 -8 284 0 c 8
 284 8 254 52 254 52 c 25
 262 106 l 25
 254 176 l 25
 190 238 l 25
 148 208 l 25
 130 144 l 25
 146 66 l 25
 136 20 l 25
 48 18 l 1
 48 18 l 1
 34 366 l 1
EndSplineSet
Validated: 37
EndChar

StartChar: o
Encoding: 111 111 4
Width: 376
Flags: HW
LayerCount: 2
Fore
SplineSet
82 318 m 25
 136 356 l 25
 200 342 l 25
 244 282 l 25
 244 282 244 238 248 226 c 8
 252 214 226 150 228 148 c 8
 230 146 154 82 154 80 c 8
 154 78 98 82 98 82 c 25
 98 82 58 158 60 160 c 8
 62 162 66 250 66 250 c 25
 82 318 l 25
86 450 m 0
 90 452 0 346 0 346 c 1
 -29.6992007208 230.960850564 -3.60770508733 138.383011349 18 44 c 1
 56.3979336581 -37.6193661918 288.011539077 14.4680478065 278 40 c 0
 277.269887593 41.8619709646 326 142 326 146 c 8
 326 150 336 276 336 276 c 25
 288 398 l 25
 226 448 l 1
 198 458 l 1
 166 453 144 460 140 464 c 1024
EndSplineSet
Validated: 524323
EndChar

StartChar: e
Encoding: 101 101 5
Width: 468
Flags: HW
LayerCount: 2
Fore
SplineSet
216 442 m 1
 284 408 l 1
 318 358 l 1
 328 302 l 1
 252 302 l 1
 188 306 l 1
 140 306 l 1
 122 374 l 1
 122 374 150 416 152 416 c 0
 154 416 197 435 216 442 c 1
158 524 m 25
 158 524 94 486 92 486 c 0
 90 486 54 408 54 408 c 25
 36 294 l 1
 36 294 32 202 32 194 c 0
 32 186 56 78 56 78 c 25
 56 78 114 26 116 24 c 0
 118 22 178 14 184 14 c 8
 190 14 272 12 272 12 c 25
 332 24 l 25
 332 24 372 24 374 24 c 8
 376 24 412 98 412 100 c 0
 412 102 402 138 402 138 c 25
 402 138 346 136 346 134 c 0
 346 132 304 112 304 112 c 25
 256 108 l 1
 156 112 l 25
 156 112 152 144 150 156 c 8
 148 168 152 230 152 230 c 25
 170 244 l 25
 224 244 l 25
 224 244 252 244 276 244 c 8
 300 244 340 240 342 240 c 8
 344 240 414 240 414 240 c 25
 416 308 l 25
 394 374 l 25
 394 374 362 420 358 426 c 8
 354 432 314 476 314 476 c 25
 276 510 l 25
 238 526 l 25
 158 524 l 25
EndSplineSet
Validated: 41
EndChar

StartChar: j
Encoding: 106 106 6
Width: 388
Flags: HW
LayerCount: 2
Fore
SplineSet
58 504 m 25
 122 500 l 25
 122 500 148 510 148 512 c 8
 148 514 160 544 156 544 c 8
 152 544 124 578 124 578 c 25
 100 574 l 25
 72 556 l 25
 72 556 58 528 60 524 c 0
 62 520 59 512 58 504 c 25
230 390 m 0
 232 394 224 387 230 390 c 1
 248 382 l 25
 254 432 l 1
 242 434 l 25
 204 434 l 1
 144 432 l 25
 88 422 l 25
 36 416 l 25
 36 416 28 400 28 396 c 8
 28 392 34 376 34 376 c 25
 52 354 l 25
 94 358 l 25
 122 360 l 25
 138 248 l 25
 138 248 148 212 148 200 c 8
 148 188 158 64 158 64 c 25
 166 -14 l 25
 144 -68 l 25
 100 -72 l 25
 58 -32 l 25
 44 14 l 25
 12 -20 l 25
 16 -94 l 25
 36 -128 l 25
 86 -152 l 25
 152 -154 l 25
 216 -124 l 25
 242 -42 l 25
 248 64 l 25
 230 208 l 25
 214 382 l 1049
EndSplineSet
Validated: 43
EndChar

StartChar: P
Encoding: 80 80 7
Width: 414
Flags: HW
LayerCount: 2
Fore
SplineSet
120 734 m 1
 120 734 254 738 256 738 c 0
 258 738 322 690 322 690 c 1
 322 690 354 608 354 606 c 0
 354 604 324 504 324 504 c 1
 124 462 l 1
 120 734 l 1
0 798 m 9
 0 798 4 0 0 0 c 8
 -4 0 120 -2 120 0 c 8
 120 2 172 -4 172 0 c 0
 172 4 152 214 152 214 c 25
 156 370 l 1
 172 422 l 17
 170.180883707 421.906915892 312.085015564 442.922826134 322 444 c 0
 397.644146438 452.218056032 397.435546875 493.022460938 400 494 c 9
 410 560 l 1
 406 664 l 25
 382 744 l 1
 288 796 l 25
 186 806 l 1
 0 798 l 9
EndSplineSet
Validated: 524329
EndChar

StartChar: r
Encoding: 114 114 8
Width: 368
Flags: HW
LayerCount: 2
Fore
SplineSet
254 416 m 0
 254.344333069 415.421507644 232.02734375 444.6484375 190 446 c 1
 122 444 l 1
 84 428 l 1
 64 410 l 1
 68 386 l 1
 76 450 l 1
 76 450 22 448 22 450 c 0
 22 452 2 448 0 448 c 0
 -2 448 0 0 0 0 c 9
 0 0 104 -4 104 0 c 0
 104 4 98 96 98 96 c 25
 100 186 l 1
 98 250 l 1
 98 250 107.194013328 294.39938225 106 306 c 0
 103.857742319 326.813429716 138.126727485 349.48616078 158 352 c 0
 197.192274025 356.957566777 240.156362285 366.053726204 236 346 c 0
 235.188207474 342.083242043 260 312 260 312 c 1
 260 312 272 264 274 264 c 0
 276 264 288 246 288 246 c 25
 288 246 334 290 334 292 c 0
 334 294 302 380 302 380 c 1
 278 406 l 1025
EndSplineSet
Validated: 524323
EndChar

StartChar: n
Encoding: 110 110 9
Width: 432
Flags: HW
LayerCount: 2
Fore
SplineSet
12 426 m 1
 12 426 26 0 24 0 c 0
 22 0 106 0 106 0 c 1
 104 104 l 1
 100 194 l 1
 114 248 l 1
 156 290 l 1
 156 290 210 282 216 282 c 0
 222 282 270 260 272 258 c 8
 274 256 294 224 294 216 c 0
 294 208 294 162 296 148 c 8
 298 134 306 92 306 78 c 8
 306 64 308 0 306 0 c 0
 304 0 386 0 386 0 c 1
 390 60 l 1
 386 146 l 1
 386 240 l 1
 354 330 l 1
 354 330 324 376 322 376 c 0
 320 376 252 398 252 398 c 25
 252 398 174 416 164 416 c 0
 154 416 100 402 100 402 c 1
 80 376 l 1
 80 426 l 1
 12 426 l 1
EndSplineSet
Validated: 37
EndChar

StartChar: cacute
Encoding: 230 263 10
Width: 473
Flags: HW
LayerCount: 2
Fore
SplineSet
306 530 m 25
 354 568 l 25
 382 588 l 25
 410 570 l 25
 388 540 l 1
 356 518 l 25
 326 522 l 1
 306 530 l 25
432 390 m 25
 396 438 l 25
 396 438 346 466 346 468 c 8
 346 470 244 484 244 484 c 25
 166 480 l 25
 166 480 108 452 102 442 c 8
 96 432 72 388 68 372 c 0
 64 356 40 294 40 286 c 0
 40 278 36 168 36 152 c 0
 36 136 70 86 70 86 c 1
 70 86 100.359375 42.224609375 104 36 c 0
 117.16796875 13.486328125 263.163085938 -6.16796875 260 0 c 0
 259.087890625 1.779296875 348 10 350 10 c 8
 352 10 416 66 416 66 c 25
 416 66 452 132 448 132 c 8
 444 132 368 170 368 170 c 25
 336 108 l 25
 264 76 l 25
 184 102 l 25
 160 150 l 25
 160 150 136 196 134 204 c 8
 132 212 138 328 138 328 c 25
 138 328 160.151367188 341.446289062 158 352 c 0
 153.984375 371.700195312 251.141601562 429.606445312 274 404 c 9
 354 388 l 25
 406 328 l 25
 460 378 l 25
 432 390 l 25
EndSplineSet
Validated: 524329
EndChar

StartChar: Cacute
Encoding: 198 262 11
Width: 608
Flags: HW
LayerCount: 2
Fore
SplineSet
362 752 m 9
 438 810 l 25
 492 800 l 25
 488 750 l 25
 454 740 l 25
 410 740 l 25
 374 730 l 25
 338 720 l 25
 362 752 l 9
388 690 m 8
 380 694 288 678 288 678 c 25
 178 660 l 1
 178 660 102 614 100 612 c 0
 98 610 50 540 50 540 c 1
 50 540 26.01171875 452 26 420 c 0
 25.9853515625 379.104492188 25.998046875 319.733398438 26 318 c 0
 26.0048828125 314 18 288 18 288 c 1
 18 288 46 154 48 152 c 0
 50 150 124 94 124 90 c 0
 124 86 194 40 200 38 c 8
 206 36 312 32 316 28 c 8
 320 24 456 44 456 44 c 25
 528 110 l 25
 562 266 l 1
 530.931462269 300.158908214 515.63671875 349.411509473 470 206 c 9
 418 194 l 1
 262 182 l 1
 176 252 l 1
 158 294 l 1
 158 294 164 368 166 374 c 0
 168 380 178 488 178 488 c 1
 178 488 230 542 234 544 c 0
 238 546 330 590 330 590 c 25
 330 590 432 568 432 566 c 0
 432 564 471 529 496 506 c 17
 580.995555897 469.720841709 575.715406593 583.994913615 480 642 c 0
 474.868627926 645.109694573 388 690 388 690 c 1025
EndSplineSet
Validated: 524323
EndChar

StartChar: Ccaron
Encoding: 200 268 12
Width: 716
Flags: HW
LayerCount: 2
Fore
SplineSet
684 118 m 0
 688 124 700 168 700 168 c 1
 695.429289218 204.638806449 671.744824784 195.613348346 652 196 c 1
 616 156 l 1
 582 124 l 25
 582 124 508 126 500 126 c 0
 492 126 430 132 430 132 c 9
 334 148 l 25
 334 148 284 200 284 202 c 8
 284 204 254 254 254 268 c 8
 254 282 264 356 264 358 c 8
 264 360 280 424 286 434 c 8
 292 444 314 492 314 492 c 25
 314 492 354 536 360 538 c 8
 366 540 472 544 472 544 c 25
 472 544 522 528 524 528 c 8
 526 528 586 480 586 480 c 25
 586 480 652 472 654 474 c 0
 656 476 634 548 622 596 c 1
 587.445756874 633.188014142 576.140391991 681.613644012 482 690 c 1
 328 680 l 1
 220 640 l 1
 168 582 l 1
 132 484 l 1
 96 332 l 25
 114 182 l 1
 160 64 l 25
 242 14 l 25
 392 14 l 25
 524 12 l 25
 608 20 l 1025
608 20 m 8
 606 20 660 54 660 54 c 25
 684 118 l 1049
288 784 m 9
 332 744 l 25
 376 714 l 25
 430 744 l 25
 460 782 l 25
 468 812 l 25
 440 798 l 25
 418 780 l 1
 396 764 l 25
 378 750 l 1
 344 778 l 25
 312 798 l 1
 280 814 l 25
 288 784 l 9
EndSplineSet
Validated: 524331
EndChar

StartChar: ccaron
Encoding: 232 269 13
Width: 478
Flags: HW
LayerCount: 2
Fore
SplineSet
402 374 m 25
 292 420 l 25
 160 418 l 25
 120 388 l 1
 78 300 l 25
 78 300 80 238 78 234 c 0
 76 230 80 110 80 110 c 25
 108 70 l 25
 108 70 142 36 148 34 c 8
 154 32 208 20 212 10 c 8
 216 0 318 0 320 0 c 0
 322 0 390 18 392 18 c 8
 394 18 442 74 442 74 c 1
 438 126 l 17
 402.245117188 171.163085938 396.346679688 134.21484375 380 126 c 9
 364 92 l 25
 302 88 l 1
 302 88 234 106 232 106 c 8
 230 106 184 172 184 172 c 1
 178 228 l 25
 178 228 182 280 188 286 c 0
 194 292 218 336 218 336 c 1
 288 324 l 1
 374 294 l 1
 404.661132812 288.470703125 440.858398438 276.129882812 420 334 c 1
 402 374 l 25
210 522 m 25
 252 472 l 25
 296 458 l 25
 354 498 l 25
 376 536 l 25
 376 536 322 542 320 542 c 8
 318 542 304 518 304 518 c 25
 286 498 l 25
 246 520 l 25
 222 562 l 25
 198 552 l 25
 210 522 l 25
EndSplineSet
Validated: 524329
EndChar

StartChar: Scaron
Encoding: 169 352 14
Width: 674
Flags: HW
LayerCount: 2
Fore
SplineSet
366 770 m 25
 366 770 394 728 396 726 c 8
 398 724 424 696 426 696 c 8
 428 696 464 742 464 742 c 25
 464 742 484 776 478 778 c 8
 472 780 434 784 434 784 c 25
 424 756 l 25
 424 756 402 754 400 754 c 8
 398 754 366 786 366 786 c 1049
608 506 m 1
 608 506 562 588 554 588 c 0
 546 588 420 640 418 640 c 0
 416 640 276 624 266 624 c 0
 256 624 190 570 188 558 c 0
 186 546 154 452 148 428 c 0
 142 404 144 332 160 326 c 8
 176 320 230 316 232 316 c 0
 234 316 382 300 386 298 c 8
 390 296 508 256 508 252 c 8
 508 248 536 208 536 208 c 25
 536 208 548 150 526 132 c 8
 504 114 480 86 464 82 c 8
 448 78 390 64 366 62 c 8
 342 60 284 66 238 70 c 0
 192 74 92 144 92 144 c 25
 92 144 74 0 92 0 c 0
 110 0 226 -16 238 -16 c 8
 250 -16 344 0 368 0 c 8
 392 0 422 0 444 0 c 8
 466 0 536 4 536 0 c 8
 536 -4 580 38 580 38 c 25
 580 38 618 132 618 138 c 8
 618 144 628 260 628 264 c 8
 628 268 596 320 584 328 c 0
 572 336 476 364 476 364 c 25
 476 364 406 372 394 374 c 0
 382 376 350 386 338 390 c 8
 326 394 270 398 262 404 c 0
 254 410 252 426 256 448 c 0
 260 470 320 504 330 504 c 8
 340 504 364 534 384 522 c 0
 404 510 460 502 460 504 c 8
 460 506 566 472 566 472 c 25
 608 506 l 1
EndSplineSet
Validated: 43
EndChar

StartChar: Zcaron
Encoding: 174 381 15
Width: 786
Flags: HW
LayerCount: 2
Fore
SplineSet
116 666 m 1
 616 648 l 1
 616 648 318 122 320 122 c 0
 322 122 736 114 736 114 c 1
 736 114 698 38 700 38 c 0
 702 38 168 34 168 34 c 1
 82 28 l 1
 470 588 l 1
 116 584 l 1
 60 578 l 1
 116 666 l 1
318 800 m 9
 340 770 l 25
 378 732 l 25
 416 742 l 25
 416 742 446 758 446 760 c 8
 446 762 482 798 482 798 c 25
 446 802 l 25
 418 784 l 25
 390 770 l 25
 366 788 l 25
 336 808 l 25
 318 800 l 9
EndSplineSet
Validated: 41
EndChar

StartChar: scaron
Encoding: 185 353 16
Width: 496
Flags: HW
LayerCount: 2
Fore
SplineSet
262 458 m 8
 260 464 304 464 308 464 c 8
 312 464 346 454 350 454 c 8
 354 454 386 426 388 426 c 8
 390 426 438 406 438 406 c 25
 438 406 466 406 466 412 c 0
 466 418 462 464 462 464 c 1
 438 486 l 1
 400 514 l 1
 374 536 l 1
 330 546 l 25
 266 556 l 25
 198 550 l 1
 178 518 l 1
 178 518 150 494 150 486 c 0
 150 478 138 454 130 438 c 1
 140 398 l 1
 164 390 l 1
 164 390 188 386 196 382 c 0
 204 378 238 352 250 344 c 0
 262 336 281.196289062 312.376953125 284 312 c 0
 344.201171875 303.913085938 355.139648438 227.48828125 312 232 c 9
 312 232 320 216 314 214 c 0
 308 212 272 188 266 186 c 8
 260 184 220 164 200 158 c 8
 180 152 156 142 152 142 c 8
 148 142 98 138 98 138 c 1
 88.8681640625 172.720703125 98.2509765625 228.630859375 46 214 c 9
 46 214 40 166 40 160 c 0
 40 154 54 114 58 112 c 8
 62 110 100 72 106 68 c 8
 112 64 184 60 186 60 c 8
 188 60 256 76 256 76 c 25
 256 76 302 106 304 106 c 8
 306 106 360 142 360 142 c 25
 400 212 l 25
 412 296 l 25
 386 332 l 25
 326 366 l 25
 272 402 l 25
 246 434 l 17
 245.731445312 433.185546875 238.0859375 383.708984375 262 458 c 1024
206 654 m 9
 248 602 l 25
 264 584 l 25
 264 584 310 604 310 606 c 8
 310 608 336 658 336 658 c 25
 304 668 l 25
 278 640 l 25
 274 620 l 25
 246 660 l 25
 220 682 l 25
 206 654 l 9
EndSplineSet
Validated: 524331
EndChar

StartChar: zcaron
Encoding: 190 382 17
Width: 416
Flags: HW
LayerCount: 2
Fore
SplineSet
72 372 m 1
 202.688476562 386.15625 310.302734375 368.946289062 404 372 c 1
 404.90234375 371.602539062 149.014648438 113.5234375 148 140 c 0
 147.607421875 150.240234375 404.974609375 156.100585938 398 140 c 1
 406 88 l 1
 291.215820312 82.177734375 172.672851562 80.8447265625 42 94 c 1
 103.577148438 168.752929688 141.294921875 237.65625 242 322 c 1
 177.061523438 328.616210938 15.443359375 294.724609375 38 338 c 9
 72 372 l 1
182 490 m 25
 226 434 l 25
 286 468 l 25
 298 508 l 25
 258 504 l 25
 252 476 l 25
 200 502 l 25
 182 490 l 25
EndSplineSet
Validated: 524325
EndChar

StartChar: Dcroat
Encoding: 208 272 18
Width: 642
Flags: HW
LayerCount: 2
Fore
SplineSet
226 620 m 25
 226 620 306 606 314 602 c 0
 322 598 382 580 384 578 c 8
 386 576 406 580 422 554 c 8
 438 528 446 512 450 500 c 8
 454 488 462 494 460 442 c 8
 458 390 478 332 476 320 c 8
 474 308 466 240 462 228 c 8
 458 216 446 190 438 186 c 8
 430 182 334 150 334 150 c 25
 230 150 l 25
 206 170 l 25
 192 382 l 1
 264 394 l 1
 262 530 l 1
 262 530 208 530 206 530 c 0
 204 530 202 568 202 568 c 1
 192 608 l 1049
584 548 m 8
 590 544 576 594 576 594 c 25
 556 650 l 25
 556 650 498 710 496 710 c 8
 494 710 388 722 386 722 c 0
 384 722 290 728 288 728 c 8
 286 728 166 724 166 724 c 1
 88 720 l 25
 88 720 92 708 92 670 c 0
 92 632 88 540 88 540 c 9
 22 534 l 25
 22 480 l 1
 24 396 l 1
 78 398 l 1
 86 224 l 1
 86 66 l 1
 86 66 128 60 132 60 c 0
 136 60 184 44 220 44 c 8
 256 44 326 44 332 44 c 0
 338 44 416 49 470 52 c 17
 516.854197487 88.4735077544 572.687054575 98.6118517163 594 210 c 9
 606 324 l 25
 596 446 l 1
 596 446 592 514 584 548 c 1024
88 540 m 1049
EndSplineSet
Validated: 524323
EndChar

StartChar: dcroat
Encoding: 240 273 19
Width: 396
Flags: HW
LayerCount: 2
Fore
SplineSet
107 206 m 1
 133 244 l 1
 179 252 l 1
 221 198 l 1
 221 198 231 164 231 162 c 8
 231 160 233 128 235 120 c 8
 237 112 227 88 227 88 c 25
 177 82 l 25
 177 82 119 112 117 114 c 8
 115 116 111 162 111 162 c 1
 107 206 l 1
325 610 m 1
 253 604 l 1
 255 492 l 1
 173 486 l 1
 175 436 l 25
 245 432 l 25
 245 432 249 364 247 362 c 0
 245 360 249 284 249 284 c 1
 241 248 l 1
 215 290 l 1
 202.270507812 322.788085938 159.255859375 320.650390625 121 324 c 1
 85 286 l 25
 85 286 43 248 47 230 c 8
 51 212 49 130 49 130 c 25
 79 58 l 25
 79 58 101 36 105 34 c 8
 109 32 159 18 171 18 c 8
 183 18 257 18 257 18 c 1
 257 18 273 28 275 28 c 0
 277 28 311 26 311 26 c 1
 305 430 l 1
 361 426 l 1
 367 496 l 1
 355 498 l 1
 317 504 l 1
 325 610 l 1
EndSplineSet
Validated: 524329
EndChar
